<svg xmlns="http://www.w3.org/2000/svg" xmlns:xlink="http://www.w3.org/1999/xlink" width="108.18743896484375" height="108.63253784179688" viewBox="0 0 108.18743896484375 108.63253784179688" fill="none"><path d="M79.78 14.91C75.08 11.21 70.28 8.11 61.18 6.11C48.38 3.51 34.58 5.31 23.88 13.21C14.38 19.91 7.08 30.81 5.38 43.71C4.27999 52.81 5.18 68.51 12.88 78.31L14.18 80.81C16.58 88.71 24.48 95.81 33.88 97.81L34.58 97.91C42.28 102.01 48.78 103.51 56.68 103.11C70.88 102.61 77.58 104.41 83.88 103.21C92.38 101.61 101.58 93.81 101.48 79.51C101.48 72.31 100.78 65.51 100.78 65.51C100.78 65.51 103.28 59.21 103.18 50.21C103.08 37.71 96.68 20.91 79.78 15.21L79.78 14.91Z"   fill="url(#linear_fill_4_2)" ></path><path d="M79.4845 14.7118C82.9845 18.2118 84.9845 24.0118 87.4845 29.2118C90.7845 36.0118 97.2845 45.1118 99.2845 53.7118C99.9845 56.9118 100.485 60.5118 100.785 65.5118C101.985 62.0118 103.185 57.0118 103.085 50.1118C102.885 37.8118 96.1845 19.9118 79.4845 14.7118Z"   fill="url(#linear_fill_4_3)" ></path><path d="M100.25 65.0118C99.6495 59.9118 99.2495 56.7118 98.5495 53.7118C96.6495 46.1118 92.2495 35.4118 88.8495 28.4118C86.6495 23.6118 83.5795 18.6118 79.4795 14.7118C76.5795 13.9118 72.9495 13.2118 67.6495 13.2118C52.9495 13.2118 40.7495 19.7118 32.7495 32.1118C31.2495 34.6118 28.6495 39.4118 28.6495 39.4118C28.6495 39.4118 22.6495 48.2118 21.9495 49.7118C18.4495 56.3118 13.7495 64.1118 13.0495 72.3118C12.8495 75.1118 13.0495 77.7118 13.6495 80.4118C15.7495 87.5118 22.6495 94.4118 33.2495 97.3118L33.9495 97.4118C40.0495 100.612 46.6495 102.812 55.9495 102.612C60.7495 102.112 65.8495 101.212 73.0495 97.9118C82.5495 93.3118 90.9495 85.3118 97.0495 74.3118C98.2495 72.3118 99.6495 69.2118 100.25 67.2118L100.25 65.0118Z"   fill="url(#linear_fill_4_4)" ></path><path d="M100.785 65.5118C100.085 67.7118 98.7845 70.6118 97.5845 72.6118C91.2845 83.8118 82.8845 91.8118 73.5845 97.8118C76.8845 100.412 81.0845 103.512 83.9845 103.212C92.4845 101.812 101.485 94.2118 101.485 79.7118C101.485 75.3118 100.885 67.3118 100.785 65.5118Z"   fill="url(#linear_fill_4_5)" ></path><path d="M34.4746 97.9118C27.9746 94.2118 23.1746 90.2118 21.0746 83.1118C17.5746 71.8118 16.3845 60.2118 22.4846 48.7118L18.9846 53.7118C15.4824 59.7118 13.4746 66.3118 12.9746 73.7118C12.4746 84.3118 21.0745 94.9118 33.7746 97.8118L34.4746 97.9118Z"   fill="url(#linear_fill_4_6)" ></path><path d="M64.7845 75.6118C65.5845 84.6118 67.0845 92.4118 73.5845 97.7118C80.8845 94.0118 90.3845 87.8118 98.0845 73.1118C98.7845 71.7118 100.384 68.6118 100.785 65.5118C100.384 59.7118 100.084 55.7118 99.4845 53.2118C96.9845 44.7118 93.8845 35.3118 89.9845 27.7118C88.2845 24.2118 84.4845 18.7118 79.7845 15.1118C76.8845 14.3118 73.4845 13.7118 68.1845 13.7118C54.1845 13.7118 41.4845 18.4118 32.9845 31.7118C35.5845 27.9118 43.4845 16.1118 64.7845 75.6118Z"   fill="url(#linear_fill_4_7)" ></path><g filter="url(#filter_4_8)"><path d="M33.4842 50.9088L69.5842 35.1088C74.5842 32.9088 78.1842 35.9088 76.8842 40.8088L63.9842 78.1088C61.5842 82.8088 56.5842 82.7088 55.0842 78.4088L50.4842 64.6088C50.0842 63.5088 49.3842 62.6088 48.1842 62.3088C43.5842 61.2088 36.6842 59.1088 33.9842 58.1088C30.4842 57.2088 29.4842 52.8088 33.4842 50.9088Z"   fill="url(#linear_fill_4_8)" ></path></g><defs><linearGradient id="linear_fill_4_2" x1="21.601531982421875" y1="27.73974609375" x2="75.984619140625" y2="103.632568359375" gradientUnits="userSpaceOnUse"><stop offset="0" stop-color="#BFDFFF" stop-opacity="0.78" /><stop offset="0.5509" stop-color="#3392FF"  /><stop offset="1" stop-color="#89BEFA" stop-opacity="0.74" /></linearGradient><linearGradient id="linear_fill_4_3" x1="95.7645263671875" y1="22.7117919921875" x2="95.7645263671875" y2="65.831787109375" gradientUnits="userSpaceOnUse"><stop offset="0" stop-color="#1E99FC"  /><stop offset="1" stop-color="#0756FB"  /></linearGradient><linearGradient id="linear_fill_4_4" x1="40.84968566894531" y1="31.7012939453125" x2="49.74998474121094" y2="99.96243286132812" gradientUnits="userSpaceOnUse"><stop offset="0" stop-color="#338EFD"  /><stop offset="0.4946" stop-color="#2E7EFB"  /><stop offset="1" stop-color="#81BDFA"  /></linearGradient><linearGradient id="linear_fill_4_5" x1="73.16452026367188" y1="62.36181640625" x2="101.37452697753906" y2="92.38180541992188" gradientUnits="userSpaceOnUse"><stop offset="0" stop-color="#2D78FB"  /><stop offset="1" stop-color="#509CFC"  /></linearGradient><linearGradient id="linear_fill_4_6" x1="20.5660400390625" y1="86.1136474609375" x2="20.5660400390625" y2="58.01507568359375" gradientUnits="userSpaceOnUse"><stop offset="0" stop-color="#3086FD"  /><stop offset="1" stop-color="#3594FC"  /><stop offset="1.01" stop-color="#328FFE"  /></linearGradient><linearGradient id="linear_fill_4_7" x1="63.29450988769531" y1="14.049774169921875" x2="88.97451782226562" y2="70.49179077148438" gradientUnits="userSpaceOnUse"><stop offset="0" stop-color="#3896FD"  /><stop offset="0.3244" stop-color="#2C81FC"  /><stop offset="0.8357" stop-color="#295EFF"  /><stop offset="1" stop-color="#356EFC"  /></linearGradient><linearGradient id="linear_fill_4_8" x1="42.913360595703125" y1="61.381805419921875" x2="77.15200805664062" y2="38.819244384765625" gradientUnits="userSpaceOnUse"><stop offset="0" stop-color="#E3E3E3"  /><stop offset="1" stop-color="#FFFFFF"  /></linearGradient><filter id="filter_4_8" x="25.48419189453125" y="30.908843994140625" width="56.70001220703125" height="57.899993896484375" filterUnits="userSpaceOnUse" color-interpolation-filters="sRGB"><feFlood flood-opacity="0" result="feFloodId_4_8"/><feColorMatrix in="SourceAlpha" type="matrix" values="0 0 0 0 0 0 0 0 0 0 0 0 0 0 0 0 0 0 127 0" result="hardAlpha_4_8"/><feOffset dx="0" dy="2"/><feGaussianBlur stdDeviation="2"/><feComposite in2="hardAlpha_4_8" operator="out"/><feColorMatrix type="matrix" values="0 0 0 0 0 0 0 0 0 0 0 0 0 0 0 0 0 0 0.25 0"/><feBlend mode="normal" in2="feFloodId_4_8" result="dropShadow_1_4_8"/><feBlend mode="normal" in="SourceGraphic" in2="dropShadow_1_4_8" result="shape_4_8"/></filter></defs></svg>