<svg xmlns="http://www.w3.org/2000/svg" xmlns:xlink="http://www.w3.org/1999/xlink" width="280.68" height="55.44000244140625" viewBox="0 0 280.68 55.44000244140625" fill="none"><g ><path     fill="#2B364A"  d="M36.576 13.032L22.968 13.032L22.968 54.72L13.536 54.72L13.536 13.032L1.00136e-05 13.032L1.00136e-05 4.75199L36.576 4.75199L36.576 13.032ZM61.048 55.44Q56.584 55.44 53.128 54.504Q49.672 53.568 47.296 51.264Q44.92 48.96 43.66 45.072Q42.4 41.184 42.4 35.28Q42.4 29.376 43.66 25.488Q44.92 21.6 47.296 19.296Q49.672 16.992 53.128 16.056Q56.584 15.12 61.048 15.12Q65.512 15.12 69.004 16.056Q72.496 16.992 74.872 19.296Q77.248 21.6 78.508 25.488Q79.768 29.376 79.768 35.28Q79.768 41.184 78.508 45.072Q77.248 48.96 74.872 51.264Q72.496 53.568 69.004 54.504Q65.512 55.44 61.048 55.44ZM61.048 48.456Q63.784 48.456 65.584 47.808Q67.384 47.16 68.464 45.648Q69.544 44.136 70.012 41.616Q70.48 39.096 70.48 35.28Q70.48 31.536 70.012 28.98Q69.544 26.424 68.428 24.876Q67.312 23.328 65.512 22.68Q63.712 22.032 61.048 22.032Q58.384 22.032 56.584 22.68Q54.784 23.328 53.704 24.876Q52.624 26.424 52.156 28.98Q51.688 31.536 51.688 35.28Q51.688 39.096 52.156 41.616Q52.624 44.136 53.74 45.648Q54.856 47.16 56.656 47.808Q58.456 48.456 61.048 48.456ZM123.68 15.84L123.68 54.72L115.616 54.72L114.824 49.752Q113.168 52.92 110.036 54.18Q106.904 55.44 102.8 55.44Q99.128 55.44 96.644 54.576Q94.16 53.712 92.612 52.056Q91.064 50.4 90.416 47.988Q89.768 45.576 89.768 42.552L89.768 15.84L98.768 15.84L98.768 39.96Q98.768 41.976 99.056 43.488Q99.344 45 100.1 45.972Q100.856 46.944 102.152 47.448Q103.448 47.952 105.536 47.952Q108.776 47.952 111.152 46.728Q113.528 45.504 114.68 41.76L114.68 15.84L123.68 15.84ZM152.76 55.44Q148.296 55.44 144.804 54.504Q141.312 53.568 138.9 51.264Q136.488 48.96 135.228 45.072Q133.968 41.184 133.968 35.28Q133.968 29.376 135.228 25.488Q136.488 21.6 138.9 19.296Q141.312 16.992 144.804 16.056Q148.296 15.12 152.76 15.12Q155.784 15.12 158.412 15.48Q161.04 15.84 162.84 16.416L162.84 24.12Q160.752 23.328 158.52 22.968Q156.288 22.608 153.696 22.608Q150.888 22.608 148.908 23.22Q146.928 23.832 145.668 25.272Q144.408 26.712 143.832 29.16Q143.256 31.608 143.256 35.352Q143.256 39.024 143.832 41.436Q144.408 43.848 145.668 45.288Q146.928 46.728 148.944 47.304Q150.96 47.88 153.84 47.88Q156.288 47.88 158.664 47.52Q161.04 47.16 163.128 46.368L163.128 54Q162.264 54.288 161.076 54.54Q159.888 54.792 158.484 55.008Q157.08 55.224 155.604 55.332Q154.128 55.44 152.76 55.44ZM194.152 15.12Q197.824 15.12 200.308 15.984Q202.792 16.848 204.304 18.504Q205.816 20.16 206.464 22.572Q207.112 24.984 207.112 28.08L207.112 54.72L198.112 54.72L198.112 30.6Q198.112 26.496 196.78 24.552Q195.448 22.608 191.416 22.608Q188.032 22.608 185.512 23.94Q182.992 25.272 181.912 29.016L181.912 54.72L172.912 54.72L172.912 -7.62939e-06L181.912 -7.62939e-06L181.912 20.88Q183.568 17.784 186.844 16.452Q190.12 15.12 194.152 15.12Z"></path><path     fill="url(#linear_fill_16_1_0)"  d="M249.368 41.472L228.488 41.472L223.736 54.72L214.016 54.72L232.736 4.75199L245.408 4.75199L263.984 54.72L253.976 54.72L249.368 41.472ZM246.56 33.552L239.432 13.176L238.568 13.176L231.296 33.552L246.56 33.552ZM271.248 4.75199L280.68 4.75199L280.68 54.72L271.248 54.72L271.248 4.75199Z"></path></g><defs><linearGradient id="linear_fill_16_1_0" x1="-1.295989990234375" y1="28.6199951171875" x2="287.7040100097656" y2="28.6199951171875" gradientUnits="userSpaceOnUse"><stop offset="0" stop-color="#0451E0"  /><stop offset="1" stop-color="#7AB8FF"  /></linearGradient></defs></svg>
