<svg xmlns="http://www.w3.org/2000/svg" xmlns:xlink="http://www.w3.org/1999/xlink" width="421" height="116" viewBox="0 0 421 116" fill="none"><path d="M85.1837 15.6502C80.3012 11.6739 75.3148 8.3423 65.8614 6.19291C52.5644 3.3987 38.2286 5.33316 27.1131 13.8233C17.2442 21.0237 9.66077 32.7379 7.89476 46.6015C6.75204 56.3812 7.68699 73.2539 15.686 83.786L17.0365 86.4727C19.5296 94.9628 27.7364 102.593 37.5014 104.743L38.2286 104.85C46.2276 109.256 52.9799 110.868 61.1867 110.438C75.9381 109.901 82.8982 111.836 89.4429 110.546C98.2729 108.826 107.83 100.444 107.726 85.0756C107.726 77.3378 106.999 70.0299 106.999 70.0299C106.999 70.0299 109.596 63.2593 109.492 53.587C109.388 40.1533 102.74 22.0984 85.1837 15.9726L85.1837 15.6502Z"   fill="url(#linear_fill_15_4)" ></path><path d="M84.8767 15.4372C88.5126 19.1987 90.5903 25.4319 93.1873 31.0203C96.6155 38.3282 103.368 48.108 105.446 57.3504C106.173 60.7894 106.692 64.6583 107.004 70.0318C108.25 66.2703 109.497 60.8969 109.393 53.4815C109.185 40.2627 102.225 21.0256 84.8767 15.4372Z"   fill="url(#linear_fill_15_5)" ></path><path d="M106.448 69.4944C105.825 64.0135 105.409 60.5744 104.682 57.3504C102.708 49.1827 98.1374 37.6834 94.6054 30.1605C92.3199 25.002 89.1307 19.6285 84.8715 15.4372C81.8589 14.5775 78.088 13.8252 72.5822 13.8252C57.3114 13.8252 44.6377 20.8107 36.327 34.1369C34.7688 36.8237 32.0678 41.9822 32.0678 41.9822C32.0678 41.9822 25.8348 51.4395 25.1077 53.0516C21.4718 60.1446 16.5893 68.5272 15.8621 77.3397C15.6543 80.3488 15.8621 83.1431 16.4854 86.0447C18.6669 93.6751 25.8348 101.09 36.8464 104.207L37.5736 104.315C43.9105 107.754 50.7668 110.118 60.4279 109.903C65.4142 109.366 70.7123 108.398 78.1918 104.852C88.0607 99.9083 96.7869 91.3107 103.124 79.4891C104.37 77.3397 105.825 74.0081 106.448 71.8587L106.448 69.4944Z"   fill="url(#linear_fill_15_6)" ></path><path d="M107.004 70.0318C106.277 72.3961 104.926 75.5127 103.68 77.6621C97.1349 89.6987 88.4087 98.2963 78.7476 104.744C82.1758 107.539 86.5388 110.87 89.5514 110.548C98.3815 109.043 107.731 100.876 107.731 85.2925C107.731 80.5638 107.108 71.9663 107.004 70.0318Z"   fill="url(#linear_fill_15_7)" ></path><path d="M38.119 104.852C31.3666 100.876 26.3803 96.5768 24.1987 88.9464C20.5628 76.8024 19.3266 64.3359 25.6635 51.9769L22.0276 57.3504C18.3894 63.7986 16.3036 70.8915 15.7842 78.8443C15.2648 90.2361 24.1987 101.628 37.3919 104.744L38.119 104.852Z"   fill="url(#linear_fill_15_8)" ></path><path d="M69.6059 80.8862C70.4369 90.5585 71.9952 98.9411 78.7476 104.637C86.331 100.661 96.1999 93.9975 104.199 78.1995C104.926 76.6949 106.588 73.3633 107.004 70.0318C106.588 63.7985 106.277 59.4997 105.653 56.813C103.056 47.6781 99.8358 37.576 95.7844 29.4083C94.0184 25.6468 90.0708 19.736 85.1883 15.8671C82.1757 15.0073 78.6437 14.3625 73.1379 14.3625C58.5943 14.3625 45.4012 19.4136 36.5711 33.707C39.2721 29.6232 47.4788 16.9418 69.6059 80.8862Z"   fill="url(#linear_fill_15_9)" ></path><g filter="url(#filter_15_10)"><path d="M37.0902 54.3381L74.592 37.3579C79.7861 34.9935 83.5259 38.2176 82.1754 43.4836L68.7745 83.5698C66.2813 88.6209 61.0872 88.5134 59.5289 83.8922L54.7503 69.0614C54.3348 67.8792 53.6076 66.912 52.361 66.5896C47.5824 65.4074 40.4145 63.1506 37.6096 62.0759C33.9737 61.1086 32.9349 56.38 37.0902 54.3381Z"   fill="url(#linear_fill_15_10)" ></path></g><g ><path     fill="#FFFFFF"  d="M162.372 42.412L148.764 42.412L148.764 84.1L139.332 84.1L139.332 42.412L125.796 42.412L125.796 34.132L162.372 34.132L162.372 42.412ZM186.844 84.82Q182.38 84.82 178.924 83.884Q175.468 82.948 173.092 80.644Q170.716 78.34 169.456 74.452Q168.196 70.564 168.196 64.66Q168.196 58.756 169.456 54.868Q170.716 50.98 173.092 48.676Q175.468 46.372 178.924 45.436Q182.38 44.5 186.844 44.5Q191.308 44.5 194.8 45.436Q198.292 46.372 200.668 48.676Q203.044 50.98 204.304 54.868Q205.564 58.756 205.564 64.66Q205.564 70.564 204.304 74.452Q203.044 78.34 200.668 80.644Q198.292 82.948 194.8 83.884Q191.308 84.82 186.844 84.82ZM186.844 77.836Q189.58 77.836 191.38 77.188Q193.18 76.54 194.26 75.028Q195.34 73.516 195.808 70.996Q196.276 68.476 196.276 64.66Q196.276 60.916 195.808 58.36Q195.34 55.804 194.224 54.256Q193.108 52.708 191.308 52.06Q189.508 51.412 186.844 51.412Q184.18 51.412 182.38 52.06Q180.58 52.708 179.5 54.256Q178.42 55.804 177.952 58.36Q177.484 60.916 177.484 64.66Q177.484 68.476 177.952 70.996Q178.42 73.516 179.536 75.028Q180.652 76.54 182.452 77.188Q184.252 77.836 186.844 77.836ZM249.476 45.22L249.476 84.1L241.412 84.1L240.62 79.132Q238.964 82.3 235.832 83.56Q232.7 84.82 228.596 84.82Q224.924 84.82 222.44 83.956Q219.956 83.092 218.408 81.436Q216.86 79.78 216.212 77.368Q215.564 74.956 215.564 71.932L215.564 45.22L224.564 45.22L224.564 69.34Q224.564 71.356 224.852 72.868Q225.14 74.38 225.896 75.352Q226.652 76.324 227.948 76.828Q229.244 77.332 231.332 77.332Q234.572 77.332 236.948 76.108Q239.324 74.884 240.476 71.14L240.476 45.22L249.476 45.22ZM278.556 84.82Q274.092 84.82 270.6 83.884Q267.108 82.948 264.696 80.644Q262.284 78.34 261.024 74.452Q259.764 70.564 259.764 64.66Q259.764 58.756 261.024 54.868Q262.284 50.98 264.696 48.676Q267.108 46.372 270.6 45.436Q274.092 44.5 278.556 44.5Q281.58 44.5 284.208 44.86Q286.836 45.22 288.636 45.796L288.636 53.5Q286.548 52.708 284.316 52.348Q282.084 51.988 279.492 51.988Q276.684 51.988 274.704 52.6Q272.724 53.212 271.464 54.652Q270.204 56.092 269.628 58.54Q269.052 60.988 269.052 64.732Q269.052 68.404 269.628 70.816Q270.204 73.228 271.464 74.668Q272.724 76.108 274.74 76.684Q276.756 77.26 279.636 77.26Q282.084 77.26 284.46 76.9Q286.836 76.54 288.924 75.748L288.924 83.38Q288.06 83.668 286.872 83.92Q285.684 84.172 284.28 84.388Q282.876 84.604 281.4 84.712Q279.924 84.82 278.556 84.82ZM319.948 44.5Q323.62 44.5 326.104 45.364Q328.588 46.228 330.1 47.884Q331.612 49.54 332.26 51.952Q332.908 54.364 332.908 57.46L332.908 84.1L323.908 84.1L323.908 59.98Q323.908 55.876 322.576 53.932Q321.244 51.988 317.212 51.988Q313.828 51.988 311.308 53.32Q308.788 54.652 307.708 58.396L307.708 84.1L298.708 84.1L298.708 29.38L307.708 29.38L307.708 50.26Q309.364 47.164 312.64 45.832Q315.916 44.5 319.948 44.5Z"></path><path     fill="url(#linear_fill_15_12_0)"  d="M375.164 70.852L354.284 70.852L349.532 84.1L339.812 84.1L358.532 34.132L371.204 34.132L389.78 84.1L379.772 84.1L375.164 70.852ZM372.356 62.932L365.228 42.556L364.364 42.556L357.092 62.932L372.356 62.932ZM397.044 34.132L406.476 34.132L406.476 84.1L397.044 84.1L397.044 34.132Z"></path></g><defs><linearGradient id="linear_fill_15_4" x1="24.74615478515625" y1="29.43829345703125" x2="81.24090576171875" y2="111" gradientUnits="userSpaceOnUse"><stop offset="0" stop-color="#BFDFFF" stop-opacity="0.78" /><stop offset="0.5509" stop-color="#3392FF"  /><stop offset="1" stop-color="#89BEFA" stop-opacity="0.74" /></linearGradient><linearGradient id="linear_fill_15_5" x1="101.78887939453125" y1="24.0347900390625" x2="101.78887939453125" y2="70.37567138671875" gradientUnits="userSpaceOnUse"><stop offset="0" stop-color="#1E99FC"  /><stop offset="1" stop-color="#0756FB"  /></linearGradient><linearGradient id="linear_fill_15_6" x1="44.74169921875" y1="33.69573974609375" x2="53.98760986328125" y2="107.05575561523438" gradientUnits="userSpaceOnUse"><stop offset="0" stop-color="#338EFD"  /><stop offset="0.4946" stop-color="#2E7EFB"  /><stop offset="1" stop-color="#81BDFA"  /></linearGradient><linearGradient id="linear_fill_15_7" x1="78.311279296875" y1="66.64651489257812" x2="107.61669921875" y2="98.90887451171875" gradientUnits="userSpaceOnUse"><stop offset="0" stop-color="#2D78FB"  /><stop offset="1" stop-color="#509CFC"  /></linearGradient><linearGradient id="linear_fill_15_8" x1="23.67047119140625" y1="92.17254638671875" x2="23.67047119140625" y2="61.97509765625" gradientUnits="userSpaceOnUse"><stop offset="0" stop-color="#3086FD"  /><stop offset="1" stop-color="#3594FC"  /><stop offset="1.01" stop-color="#328FFE"  /></linearGradient><linearGradient id="linear_fill_15_9" x1="68.05804443359375" y1="14.72576904296875" x2="94.73516845703125" y2="75.38375854492188" gradientUnits="userSpaceOnUse"><stop offset="0" stop-color="#3896FD"  /><stop offset="0.3244" stop-color="#2C81FC"  /><stop offset="0.8357" stop-color="#295EFF"  /><stop offset="1" stop-color="#356EFC"  /></linearGradient><linearGradient id="linear_fill_15_10" x1="46.885498046875" y1="65.59332275390625" x2="82.45361328125" y2="41.34539794921875" gradientUnits="userSpaceOnUse"><stop offset="0" stop-color="#E3E3E3"  /><stop offset="1" stop-color="#FFFFFF"  /></linearGradient><filter id="filter_15_10" x="28.9349365234375" y="32.9935302734375" width="58.5909423828125" height="61.6273193359375" filterUnits="userSpaceOnUse" color-interpolation-filters="sRGB"><feFlood flood-opacity="0" result="feFloodId_15_10"/><feColorMatrix in="SourceAlpha" type="matrix" values="0 0 0 0 0 0 0 0 0 0 0 0 0 0 0 0 0 0 127 0" result="hardAlpha_15_10"/><feOffset dx="0" dy="2"/><feGaussianBlur stdDeviation="2"/><feComposite in2="hardAlpha_15_10" operator="out"/><feColorMatrix type="matrix" values="0 0 0 0 0 0 0 0 0 0 0 0 0 0 0 0 0 0 0.25 0"/><feBlend mode="normal" in2="feFloodId_15_10" result="dropShadow_1_15_10"/><feBlend mode="normal" in="SourceGraphic" in2="dropShadow_1_15_10" result="shape_15_10"/></filter><linearGradient id="linear_fill_15_12_0" x1="124.5" y1="58" x2="413.5" y2="58" gradientUnits="userSpaceOnUse"><stop offset="0" stop-color="#0451E0"  /><stop offset="1" stop-color="#7AB8FF"  /></linearGradient></defs></svg>