<svg xmlns="http://www.w3.org/2000/svg" xmlns:xlink="http://www.w3.org/1999/xlink" width="291" height="87" viewBox="0 0 291 87" fill="none"><g ><path     fill="url(#linear_fill_18_1_0)"  d="M1.224 25.2L39.096 25.2L39.096 34.92L26.136 34.92L26.136 75.6L14.184 75.6L14.184 34.92L1.224 34.92L1.224 25.2ZM63.928 76.536Q57.808 76.536 53.164 74.016Q48.52 71.496 46 66.852Q43.48 62.208 43.48 55.872Q43.48 46.152 48.952 40.968Q54.424 35.784 63.928 35.784Q73.36 35.784 78.832 40.968Q84.304 46.152 84.304 55.872Q84.304 62.208 81.784 66.852Q79.264 71.496 74.656 74.016Q70.048 76.536 63.928 76.536ZM54.856 55.872Q54.856 61.416 57.376 64.8Q59.896 68.184 63.928 68.184Q67.96 68.184 70.444 64.8Q72.928 61.416 72.928 55.872Q72.928 50.112 70.516 47.124Q68.104 44.136 63.928 44.136Q59.752 44.136 57.304 47.124Q54.856 50.112 54.856 55.872ZM118.136 75.672Q116.984 73.512 116.768 71.064Q114.104 73.44 110.396 74.988Q106.688 76.536 103.088 76.536Q97.544 76.536 94.268 73.296Q90.992 70.056 90.992 64.944L90.992 36.72L102.512 36.72L102.512 63Q102.512 65.088 103.916 66.42Q105.32 67.752 107.624 67.752Q109.136 67.752 111.692 66.672Q114.248 65.592 115.976 64.296L115.976 36.72L127.496 36.72L127.496 68.184Q127.496 70.56 127.784 72.18Q128.072 73.8 128.936 75.672L118.136 75.672ZM168.096 74.304Q162.552 76.536 156.72 76.536Q150.6 76.536 145.452 74.052Q140.304 71.568 137.28 66.996Q134.256 62.424 134.256 56.448Q134.256 50.184 137.136 45.504Q140.016 40.824 145.02 38.34Q150.024 35.856 156.216 35.856Q161.832 35.856 167.592 37.872L167.592 46.728Q163.2 44.856 158.592 44.856Q152.904 44.856 149.16 47.556Q145.416 50.256 145.416 56.448Q145.416 59.976 147.36 62.424Q149.304 64.872 152.4 66.132Q155.496 67.392 158.952 67.392Q161.616 67.392 164.028 66.636Q166.44 65.88 168.096 64.512L168.096 74.304ZM186.376 20.304L186.376 40.896Q188.968 38.736 192.136 37.548Q195.304 36.36 198.544 36.36Q204.088 36.36 207.364 39.6Q210.64 42.84 210.64 48.024L210.64 75.6L199.12 75.6L199.12 49.968Q199.12 47.88 197.392 46.548Q195.664 45.216 193.288 45.216Q191.92 45.216 189.904 46.08Q187.888 46.944 186.376 48.24L186.376 75.6L174.856 75.6L174.856 20.304L186.376 20.304Z"></path></g><g ><path     fill="url(#linear_fill_18_8_0)"  d="M249.128 61.344L233 61.344L229.184 75.6L216.584 75.6L231.2 25.2L251 25.2L265.616 75.6L252.944 75.6L249.128 61.344ZM246.824 52.704L241.136 31.608L240.992 31.608L235.304 52.704L246.824 52.704ZM272.736 25.2L284.616 25.2L284.616 75.6L272.736 75.6L272.736 25.2Z"></path></g><defs><linearGradient id="linear_fill_18_1_0" x1="101.19818115234375" y1="19.800323486328125" x2="101.19818115234375" y2="87" gradientUnits="userSpaceOnUse"><stop offset="0" stop-color="#000000"  /><stop offset="1" stop-color="#080A0F" stop-opacity="0.16" /></linearGradient><linearGradient id="linear_fill_18_8_0" x1="250.6068115234375" y1="19.800323486328125" x2="250.6068115234375" y2="87" gradientUnits="userSpaceOnUse"><stop offset="0" stop-color="#318BFC"  /><stop offset="1" stop-color="#F0F7FF"  /></linearGradient></defs></svg>